<mxfile host="app.diagrams.net" modified="2023-11-01T11:18:00.192Z" agent="Mozilla/5.0 (Windows NT 10.0; Win64; x64) AppleWebKit/537.36 (KHTML, like Gecko) Chrome/118.0.0.0 Safari/537.36" version="22.0.8" etag="2R6-UiOeOkb_MYMxudqm" type="github">
  <diagram name="Trang-1" id="rsTrPgpdYaaQ_Xsguely">
    <mxGraphModel>
      <root>
        <mxCell id="0" />
        <mxCell id="1" parent="0" />
      </root>
    </mxGraphModel>
  </diagram>
</mxfile>
